0
SECTION
2
HEADER
9
$INSUNITS
70
4
9
$ACADVER
1
AC1014
9
$HANDSEED
5
FFFF
0
ENDSEC
0
SECTION
2
TABLES
0
TABLE
2
VPORT
5
8
100
AcDbSymbolTable
0
ENDTAB
0
TABLE
2
LTYPE
5
5
100
AcDbSymbolTable
0
LTYPE
5
14
100
AcDbSymbolTableRecord
100
AcDbLinetypeTableRecord
2
BYBLOCK
70
0
0
LTYPE
5
15
100
AcDbSymbolTableRecord
100
AcDbLinetypeTableRecord
2
BYLAYER
70
0
0
ENDTAB
0
TABLE
2
LAYER
5
2
100
AcDbSymbolTable
70
2
0
LAYER
5
50
100
AcDbSymbolTableRecord
100
AcDbLayerTableRecord
2
0
70
0
6
CONTINUOUS
0
ENDTAB
0
TABLE
2
STYLE
5
3
100
AcDbSymbolTable
70
1
0
STYLE
5
11
100
AcDbSymbolTableRecord
100
AcDbTextStyleTableRecord
2
STANDARD
70
0
0
ENDTAB
0
TABLE
2
VIEW
5
6
100
AcDbSymbolTable
70
0
0
ENDTAB
0
TABLE
2
UCS
5
7
100
AcDbSymbolTable
70
0
0
ENDTAB
0
TABLE
2
APPID
5
9
100
AcDbSymbolTable
70
2
0
APPID
5
12
100
AcDbSymbolTableRecord
100
AcDbRegAppTableRecord
2
ACAD
70
0
0
ENDTAB
0
TABLE
2
DIMSTYLE
5
A
100
AcDbSymbolTable
70
1
0
ENDTAB
0
TABLE
2
BLOCK_RECORD
5
1
100
AcDbSymbolTable
70
1
0
BLOCK_RECORD
5
1F
100
AcDbSymbolTableRecord
100
AcDbBlockTableRecord
2
*MODEL_SPACE
0
BLOCK_RECORD
5
1B
100
AcDbSymbolTableRecord
100
AcDbBlockTableRecord
2
*PAPER_SPACE
0
ENDTAB
0
ENDSEC
0
SECTION
2
BLOCKS
0
BLOCK
5
20
100
AcDbEntity
100
AcDbBlockBegin
2
*MODEL_SPACE
0
ENDBLK
5
21
100
AcDbEntity
100
AcDbBlockEnd
0
BLOCK
5
1C
100
AcDbEntity
100
AcDbBlockBegin
2
*PAPER_SPACE
0
ENDBLK
5
1D
100
AcDbEntity
100
AcDbBlockEnd
0
ENDSEC
0
SECTION
2
ENTITIES
0
LINE
5
100
100
AcDbEntity
8
0
100
AcDbLine
10
0.1455857565637686
20
161.41745813715531
30
0
11
0.1455857565637686
21
-160.16606620928243
31
0
0
LINE
5
101
100
AcDbEntity
8
0
100
AcDbLine
10
0.1455857565637686
20
-144.05466719392987
30
0
11
-19.854414243436231
21
-144.05466719392987
31
0
0
LINE
5
102
100
AcDbEntity
8
0
100
AcDbLine
10
-19.854414243436231
20
-144.05466719392987
30
0
11
-19.854414243436231
21
-28.052594283391201
31
0
0
SPLINE
5
103
100
AcDbEntity
8
0
100
AcDbSpline
70
4
71
5
72
21
73
15
74
0
42
0.000000001
43
0.0000000001
44
0.0000000001
40
0
40
0
40
0
40
0
40
0
40
0
40
0.10000000000000001
40
0.20000000000000001
40
0.30000000000000004
40
0.40000000000000002
40
0.5
40
0.59999999999999998
40
0.69999999999999996
40
0.79999999999999993
40
0.89999999999999991
40
1
40
1
40
1
40
1
40
1
40
1
41
1
41
1
41
1
41
1
41
1
41
1
41
1
41
1
41
1
41
1
41
1
41
1
41
1
41
1
41
1
10
-19.854414243436231
20
-28.052594283391201
30
0
10
-19.0696619118143
20
-27.707195953963392
30
0
10
-17.555909064797987
20
-26.979498739267676
30
0
10
-15.45254202524875
20
-25.777246760695292
30
0
10
-12.98802195604612
20
-23.949228013535972
30
0
10
-10.509736635127741
20
-21.26551631843855
30
0
10
-8.6776964869861359
20
-18.154073157423188
30
0
10
-7.5282761061618331
20
-14.590823211567979
30
0
10
-7.0531582126723427
20
-10.581271454085535
30
0
10
-7.2015745324633231
20
-6.1590199747095395
30
0
10
-7.914676956782321
20
-1.363018678033604
30
0
10
-8.894633788782766
20
2.7448022499147742
30
0
10
-9.844392726189783
20
5.9678322624741327
30
0
10
-10.571457262870885
20
8.1786633476173147
30
0
10
-10.958464026922385
20
9.2996159972874182
30
0
0
LINE
5
104
100
AcDbEntity
8
0
100
AcDbLine
10
-10.958464026922385
20
9.2996159972874182
30
0
11
-10.958464026922385
21
26.447978280131963
31
0
0
SPLINE
5
105
100
AcDbEntity
8
0
100
AcDbSpline
70
4
71
5
72
51
73
45
74
0
42
0.000000001
43
0.0000000001
44
0.0000000001
40
0
40
0
40
0
40
0
40
0
40
0
40
0.025000000000000001
40
0.050000000000000003
40
0.075000000000000011
40
0.10000000000000001
40
0.125
40
0.14999999999999999
40
0.17499999999999999
40
0.19999999999999998
40
0.22499999999999998
40
0.24999999999999997
40
0.27499999999999997
40
0.29999999999999999
40
0.32500000000000001
40
0.35000000000000003
40
0.37500000000000006
40
0.40000000000000008
40
0.4250000000000001
40
0.45000000000000012
40
0.47500000000000014
40
0.50000000000000011
40
0.52500000000000013
40
0.55000000000000016
40
0.57500000000000018
40
0.6000000000000002
40
0.62500000000000022
40
0.65000000000000024
40
0.67500000000000027
40
0.70000000000000029
40
0.72500000000000031
40
0.75000000000000033
40
0.77500000000000036
40
0.80000000000000038
40
0.8250000000000004
40
0.85000000000000042
40
0.87500000000000044
40
0.90000000000000047
40
0.92500000000000049
40
0.95000000000000051
40
0.97500000000000053
40
1
40
1
40
1
40
1
40
1
40
1
41
1
41
1
41
1
41
1
41
1
41
1
41
1
41
1
41
1
41
1
41
1
41
1
41
1
41
1
41
1
41
1
41
1
41
1
41
1
41
1
41
1
41
1
41
1
41
1
41
1
41
1
41
1
41
1
41
1
41
1
41
1
41
1
41
1
41
1
41
1
41
1
41
1
41
1
41
1
41
1
41
1
41
1
41
1
41
1
41
1
10
-10.958464026922385
20
26.447978280131963
30
0
10
-11.176514745006116
20
27.114012268977699
30
0
10
-11.587368848669481
20
28.414896676825787
30
0
10
-12.127909435921314
20
30.272667384876311
30
0
10
-12.69698246602541
20
32.562437691235914
30
0
10
-13.156875818264062
20
35.11837004460407
30
0
10
-13.370546707056867
20
37.388248042526499
30
0
10
-13.35005029570101
20
39.412556549006126
30
0
10
-13.11567025214848
20
41.263687181674058
30
0
10
-12.70279297747107
20
43.035014124584137
30
0
10
-12.169111178088663
20
44.818208731367868
30
0
10
-11.607477710661477
20
46.678175648979774
30
0
10
-11.136571378548055
20
48.649782661806348
30
0
10
-10.86709828825928
20
50.761156483006225
30
0
10
-10.87200113076946
20
53.0517655091706
30
0
10
-11.161441413604884
20
55.587492414512845
30
0
10
-11.702378603231944
20
58.440915945959695
30
0
10
-12.432780047732294
20
61.675253646230232
30
0
10
-13.276929747158155
20
65.328562302044503
30
0
10
-14.162235538929613
20
69.393460384981211
30
0
10
-15.02629391731322
20
73.817311741314896
30
0
10
-15.816456623780756
20
78.517508074723395
30
0
10
-16.491678944041663
20
83.392196548055196
30
0
10
-17.023432967824505
20
88.332669419533232
30
0
10
-17.39718589039763
20
93.235208965594268
30
0
10
-17.613462097617997
20
98.012635349243965
30
0
10
-17.68973707888189
20
102.60731020562049
30
0
10
-17.660316331448314
20
106.99979945946743
30
0
10
-17.566935864012784
20
111.19681766183227
30
0
10
-17.450539622799667
20
115.2220069943567
30
0
10
-17.342849194317719
20
119.10590680660853
30
0
10
-17.257452201018967
20
122.87587283983052
30
0
10
-17.182298417532301
20
126.54707979542843
30
0
10
-17.068325760503011
20
130.11040207497464
30
0
10
-16.833205219663615
20
133.53285016478227
30
0
10
-16.376516788760679
20
136.7675698344959
30
0
10
-15.591836877527951
20
139.76119533748533
30
0
10
-14.379418390287517
20
142.46187797258193
30
0
10
-12.660202585857066
20
144.82796382149957
30
0
10
-10.384444720589487
20
146.8335120667596
30
0
10
-7.52345725788987
20
148.46370583256802
30
0
10
-4.7562816182763665
20
149.46245507480916
30
0
10
-2.4104233664137453
20
150.0391033714119
30
0
10
-0.72643176610462989
20
150.34698728187482
30
0
10
0.1455857565637686
20
150.48179204630574
30
0
0
SPLINE
5
106
100
AcDbEntity
8
0
100
AcDbSpline
70
4
71
5
72
51
73
45
74
0
42
0.000000001
43
0.0000000001
44
0.0000000001
40
0
40
0
40
0
40
0
40
0
40
0
40
0.025000000000000001
40
0.050000000000000003
40
0.075000000000000011
40
0.10000000000000001
40
0.125
40
0.14999999999999999
40
0.17499999999999999
40
0.19999999999999998
40
0.22499999999999998
40
0.24999999999999997
40
0.27499999999999997
40
0.29999999999999999
40
0.32500000000000001
40
0.35000000000000003
40
0.37500000000000006
40
0.40000000000000008
40
0.4250000000000001
40
0.45000000000000012
40
0.47500000000000014
40
0.50000000000000011
40
0.52500000000000013
40
0.55000000000000016
40
0.57500000000000018
40
0.6000000000000002
40
0.62500000000000022
40
0.65000000000000024
40
0.67500000000000027
40
0.70000000000000029
40
0.72500000000000031
40
0.75000000000000033
40
0.77500000000000036
40
0.80000000000000038
40
0.8250000000000004
40
0.85000000000000042
40
0.87500000000000044
40
0.90000000000000047
40
0.92500000000000049
40
0.95000000000000051
40
0.97500000000000053
40
1
40
1
40
1
40
1
40
1
40
1
41
1
41
1
41
1
41
1
41
1
41
1
41
1
41
1
41
1
41
1
41
1
41
1
41
1
41
1
41
1
41
1
41
1
41
1
41
1
41
1
41
1
41
1
41
1
41
1
41
1
41
1
41
1
41
1
41
1
41
1
41
1
41
1
41
1
41
1
41
1
41
1
41
1
41
1
41
1
41
1
41
1
41
1
41
1
41
1
41
1
10
11.249635540049923
20
26.447978280131963
30
0
10
11.467686258133654
20
27.114012268977699
30
0
10
11.878540361797018
20
28.414896676825787
30
0
10
12.419080949048851
20
30.272667384876311
30
0
10
12.988153979152948
20
32.562437691235914
30
0
10
13.448047331391599
20
35.11837004460407
30
0
10
13.661718220184405
20
37.388248042526499
30
0
10
13.641221808828547
20
39.412556549006126
30
0
10
13.406841765276017
20
41.263687181674058
30
0
10
12.993964490598607
20
43.035014124584137
30
0
10
12.4602826912162
20
44.818208731367868
30
0
10
11.898649223789015
20
46.678175648979774
30
0
10
11.427742891675592
20
48.649782661806348
30
0
10
11.158269801386817
20
50.761156483006225
30
0
10
11.163172643896997
20
53.0517655091706
30
0
10
11.452612926732421
20
55.587492414512845
30
0
10
11.993550116359481
20
58.440915945959695
30
0
10
12.723951560859831
20
61.675253646230232
30
0
10
13.568101260285692
20
65.328562302044503
30
0
10
14.45340705205715
20
69.393460384981211
30
0
10
15.317465430440757
20
73.817311741314896
30
0
10
16.107628136908293
20
78.517508074723395
30
0
10
16.7828504571692
20
83.392196548055196
30
0
10
17.314604480952042
20
88.332669419533232
30
0
10
17.688357403525167
20
93.235208965594268
30
0
10
17.904633610745535
20
98.012635349243965
30
0
10
17.980908592009428
20
102.60731020562049
30
0
10
17.951487844575851
20
106.99979945946743
30
0
10
17.858107377140321
20
111.19681766183227
30
0
10
17.741711135927204
20
115.2220069943567
30
0
10
17.634020707445256
20
119.10590680660853
30
0
10
17.548623714146505
20
122.87587283983052
30
0
10
17.473469930659839
20
126.54707979542843
30
0
10
17.359497273630549
20
130.11040207497464
30
0
10
17.124376732791152
20
133.53285016478227
30
0
10
16.667688301888216
20
136.7675698344959
30
0
10
15.883008390655489
20
139.76119533748533
30
0
10
14.670589903415054
20
142.46187797258193
30
0
10
12.951374098984603
20
144.82796382149957
30
0
10
10.675616233717024
20
146.8335120667596
30
0
10
7.8146287710174072
20
148.46370583256802
30
0
10
5.0474531314039037
20
149.46245507480916
30
0
10
2.7015948795412825
20
150.0391033714119
30
0
10
1.017603279232167
20
150.34698728187482
30
0
10
0.1455857565637686
20
150.48179204630574
30
0
0
LINE
5
107
100
AcDbEntity
8
0
100
AcDbLine
10
11.249635540049923
20
9.2996159972874182
30
0
11
11.249635540049923
21
26.447978280131963
31
0
0
SPLINE
5
108
100
AcDbEntity
8
0
100
AcDbSpline
70
4
71
5
72
21
73
15
74
0
42
0.000000001
43
0.0000000001
44
0.0000000001
40
0
40
0
40
0
40
0
40
0
40
0
40
0.10000000000000001
40
0.20000000000000001
40
0.30000000000000004
40
0.40000000000000002
40
0.5
40
0.59999999999999998
40
0.69999999999999996
40
0.79999999999999993
40
0.89999999999999991
40
1
40
1
40
1
40
1
40
1
40
1
41
1
41
1
41
1
41
1
41
1
41
1
41
1
41
1
41
1
41
1
41
1
41
1
41
1
41
1
41
1
10
20.145585756563769
20
-28.052594283391201
30
0
10
19.360833424941838
20
-27.707195953963392
30
0
10
17.847080577925524
20
-26.979498739267676
30
0
10
15.743713538376287
20
-25.777246760695292
30
0
10
13.279193469173658
20
-23.949228013535972
30
0
10
10.800908148255278
20
-21.26551631843855
30
0
10
8.9688680001136731
20
-18.154073157423188
30
0
10
7.8194476192893703
20
-14.590823211567979
30
0
10
7.3443297257998799
20
-10.581271454085535
30
0
10
7.4927460455908603
20
-6.1590199747095395
30
0
10
8.2058484699098582
20
-1.363018678033604
30
0
10
9.1858053019103032
20
2.7448022499147742
30
0
10
10.135564239317318
20
5.9678322624741327
30
0
10
10.862628775998422
20
8.1786633476173147
30
0
10
11.249635540049923
20
9.2996159972874182
30
0
0
LINE
5
109
100
AcDbEntity
8
0
100
AcDbLine
10
20.145585756563769
20
-144.05466719392987
30
0
11
20.145585756563769
21
-28.052594283391201
31
0
0
LINE
5
110
100
AcDbEntity
8
0
100
AcDbLine
10
0.1455857565637686
20
-144.05466719392987
30
0
11
20.145585756563769
21
-144.05466719392987
31
0
0
SPLINE
5
111
100
AcDbEntity
8
0
100
AcDbSpline
70
4
71
5
72
51
73
45
74
0
42
0.000000001
43
0.0000000001
44
0.0000000001
40
0
40
0
40
0
40
0
40
0
40
0
40
0.025000000000000001
40
0.050000000000000003
40
0.075000000000000011
40
0.10000000000000001
40
0.125
40
0.14999999999999999
40
0.17499999999999999
40
0.19999999999999998
40
0.22499999999999998
40
0.24999999999999997
40
0.27499999999999997
40
0.29999999999999999
40
0.32500000000000001
40
0.35000000000000003
40
0.37500000000000006
40
0.40000000000000008
40
0.4250000000000001
40
0.45000000000000012
40
0.47500000000000014
40
0.50000000000000011
40
0.52500000000000013
40
0.55000000000000016
40
0.57500000000000018
40
0.6000000000000002
40
0.62500000000000022
40
0.65000000000000024
40
0.67500000000000027
40
0.70000000000000029
40
0.72500000000000031
40
0.75000000000000033
40
0.77500000000000036
40
0.80000000000000038
40
0.8250000000000004
40
0.85000000000000042
40
0.87500000000000044
40
0.90000000000000047
40
0.92500000000000049
40
0.95000000000000051
40
0.97500000000000053
40
1
40
1
40
1
40
1
40
1
40
1
41
1
41
1
41
1
41
1
41
1
41
1
41
1
41
1
41
1
41
1
41
1
41
1
41
1
41
1
41
1
41
1
41
1
41
1
41
1
41
1
41
1
41
1
41
1
41
1
41
1
41
1
41
1
41
1
41
1
41
1
41
1
41
1
41
1
41
1
41
1
41
1
41
1
41
1
41
1
41
1
41
1
41
1
41
1
41
1
41
1
10
67.749635540049923
20
26.447978280131963
30
0
10
67.967686258133654
20
27.114012268977699
30
0
10
68.378540361797178
20
28.41489667682691
30
0
10
68.919080949049885
20
30.272667384883999
30
0
10
69.488153979154902
20
32.562437691249883
30
0
10
69.948047331393269
20
35.118370044614714
30
0
10
70.161718220184937
20
37.388248042528787
30
0
10
70.141221808827709
20
39.412556549001849
30
0
10
69.906841765274862
20
41.263687181668757
30
0
10
69.49396449059816
20
43.035014124582354
30
0
10
68.960282691216662
20
44.818208731369708
30
0
10
68.398649223790045
20
46.678175648982872
30
0
10
67.927742891676388
20
48.649782661808281
30
0
10
67.65826980138668
20
50.761156483005827
30
0
10
67.663172643896033
20
53.051765509168199
30
0
10
67.952612926731192
20
55.587492414509789
30
0
10
68.49355011635862
20
58.440915945957371
30
0
10
69.223951560859646
20
61.675253646229564
30
0
10
70.068101260286042
20
65.328562302045455
30
0
10
70.953407052057685
20
69.393460384983442
30
0
10
71.817465430441359
20
73.817311741317596
30
0
10
72.607628136908815
20
78.517508074725782
30
0
10
73.282850457169516
20
83.392196548056759
30
0
10
73.814604480952227
20
88.3326694195339
30
0
10
74.188357403525316
20
93.235208965594353
30
0
10
74.404633610745464
20
98.012635349243808
30
0
10
74.480908592009484
20
102.60731020562076
30
0
10
74.451487844576192
20
106.99979945946836
30
0
10
74.358107377140982
20
111.19681766183373
30
0
10
74.241711135928043
20
115.2220069943584
30
0
10
74.134020707446069
20
119.10590680660987
30
0
10
74.048623714146885
20
122.87587283983102
30
0
10
73.973469930659448
20
126.54707979542785
30
0
10
73.85949727362916
20
130.11040207497305
30
0
10
73.624376732789031
20
133.53285016477994
30
0
10
73.16768830188613
20
136.76756983449383
30
0
10
72.383008390654282
20
139.76119533748414
30
0
10
71.170589903415461
20
142.46187797258233
30
0
10
69.451374098986619
20
144.82796382150158
30
0
10
67.175616233719907
20
146.83351206676258
30
0
10
64.314628771019869
20
148.46370583257053
30
0
10
61.547453131405064
20
149.46245507481038
30
0
10
59.201594879541588
20
150.03910337141227
30
0
10
57.517603279232162
20
150.34698728187482
30
0
10
56.645585756563761
20
150.48179204630574
30
0
0
LINE
5
112
100
AcDbEntity
8
0
100
AcDbLine
10
67.749635540049923
20
9.2996159972874182
30
0
11
67.749635540049923
21
26.447978280131963
31
0
0
SPLINE
5
113
100
AcDbEntity
8
0
100
AcDbSpline
70
4
71
5
72
51
73
45
74
0
42
0.000000001
43
0.0000000001
44
0.0000000001
40
0
40
0
40
0
40
0
40
0
40
0
40
0.025000000000000001
40
0.050000000000000003
40
0.075000000000000011
40
0.10000000000000001
40
0.125
40
0.14999999999999999
40
0.17499999999999999
40
0.19999999999999998
40
0.22499999999999998
40
0.24999999999999997
40
0.27499999999999997
40
0.29999999999999999
40
0.32500000000000001
40
0.35000000000000003
40
0.37500000000000006
40
0.40000000000000008
40
0.4250000000000001
40
0.45000000000000012
40
0.47500000000000014
40
0.50000000000000011
40
0.52500000000000013
40
0.55000000000000016
40
0.57500000000000018
40
0.6000000000000002
40
0.62500000000000022
40
0.65000000000000024
40
0.67500000000000027
40
0.70000000000000029
40
0.72500000000000031
40
0.75000000000000033
40
0.77500000000000036
40
0.80000000000000038
40
0.8250000000000004
40
0.85000000000000042
40
0.87500000000000044
40
0.90000000000000047
40
0.92500000000000049
40
0.95000000000000051
40
0.97500000000000053
40
1
40
1
40
1
40
1
40
1
40
1
41
1
41
1
41
1
41
1
41
1
41
1
41
1
41
1
41
1
41
1
41
1
41
1
41
1
41
1
41
1
41
1
41
1
41
1
41
1
41
1
41
1
41
1
41
1
41
1
41
1
41
1
41
1
41
1
41
1
41
1
41
1
41
1
41
1
41
1
41
1
41
1
41
1
41
1
41
1
41
1
41
1
41
1
41
1
41
1
41
1
10
45.541535973077615
20
26.447978280131963
30
0
10
45.323485254993884
20
27.114012268977699
30
0
10
44.912631151330629
20
28.41489667682691
30
0
10
44.372090564079372
20
30.272667384883999
30
0
10
43.803017533975812
20
32.562437691249883
30
0
10
43.343124181737025
20
35.118370044614714
30
0
10
43.129453292943481
20
37.388248042528787
30
0
10
43.149949704298436
20
39.412556549001849
30
0
10
43.384329747850757
20
41.263687181668757
30
0
10
43.797207022528646
20
43.035014124582354
30
0
10
44.330888821911635
20
44.818208731369708
30
0
10
44.892522289339148
20
46.678175648982872
30
0
10
45.363428621452471
20
48.649782661808281
30
0
10
45.632901711740615
20
50.761156483005827
30
0
10
45.627998869229877
20
53.051765509168199
30
0
10
45.338558586394072
20
55.587492414509789
30
0
10
44.797621396767092
20
58.440915945957371
30
0
10
44.067219952267322
20
61.675253646229564
30
0
10
43.223070252842348
20
65.328562302045455
30
0
10
42.337764461071707
20
69.393460384983442
30
0
10
41.473706082688778
20
73.817311741317596
30
0
10
40.683543376221579
20
78.517508074725782
30
0
10
40.008321055960465
20
83.392196548056759
30
0
10
39.47656703217703
20
88.3326694195339
30
0
10
39.102814109603081
20
93.235208965594353
30
0
10
38.886537902381825
20
98.012635349243808
30
0
10
38.810262921117264
20
102.60731020562076
30
0
10
38.839683668550613
20
106.99979945946836
30
0
10
38.933064135986271
20
111.19681766183373
30
0
10
39.049460377199757
20
115.2220069943584
30
0
10
39.157150805682207
20
119.10590680660987
30
0
10
39.242547798981178
20
122.87587283983102
30
0
10
39.317701582467627
20
126.54707979542785
30
0
10
39.431674239496303
20
130.11040207497305
30
0
10
39.666794780335067
20
133.53285016477994
30
0
10
40.123483211237883
20
136.76756983449383
30
0
10
40.908163122471151
20
139.76119533748414
30
0
10
42.120581609712779
20
142.46187797258233
30
0
10
43.839797414144527
20
144.82796382150158
30
0
10
46.115555279412881
20
146.83351206676258
30
0
10
48.976542742112208
20
148.46370583257053
30
0
10
51.743718381724626
20
149.46245507481038
30
0
10
54.089576633586525
20
150.03910337141227
30
0
10
55.773568233895375
20
150.34698728187482
30
0
10
56.645585756563783
20
150.48179204630574
30
0
0
LINE
5
114
100
AcDbEntity
8
0
100
AcDbLine
10
45.541535973077615
20
9.2996159972874182
30
0
11
45.541535973077615
21
26.447978280131963
31
0
0
LINE
5
115
100
AcDbEntity
8
0
100
AcDbLine
10
56.645585756563776
20
161.41745813715531
30
0
11
56.645585756563776
21
-160.16606620928243
31
0
0
LINE
5
116
100
AcDbEntity
8
0
100
AcDbLine
10
46.145585756563776
20
-129.05466719392987
30
0
11
46.145585756563761
21
-28.052594283391201
31
0
0
LINE
5
117
100
AcDbEntity
8
0
100
AcDbLine
10
56.645585756563776
20
-129.05466719392987
30
0
11
67.145585756563776
21
-129.05466719392987
31
0
0
LINE
5
118
100
AcDbEntity
8
0
100
AcDbLine
10
67.145585756563776
20
-129.05466719392987
30
0
11
67.145585756563804
21
-28.052594283391201
31
0
0
LINE
5
119
100
AcDbEntity
8
0
100
AcDbLine
10
56.645585756563776
20
-129.05466719392987
30
0
11
46.145585756563776
21
-129.05466719392987
31
0
0
LINE
5
120
100
AcDbEntity
8
0
100
AcDbLine
10
49.269130719306766
20
-10.932839276138646
30
0
11
56.645585756563776
21
-10.932839276374864
31
0
0
LINE
5
121
100
AcDbEntity
8
0
100
AcDbLine
10
49.233924488821643
20
-11.461183748518344
30
0
11
56.645585756563776
21
-11.461183748601869
31
0
0
SPLINE
5
122
100
AcDbEntity
8
0
100
AcDbSpline
70
4
71
5
72
16
73
10
74
0
42
0.000000001
43
0.0000000001
44
0.0000000001
40
0
40
0
40
0
40
0
40
0
40
0
40
0.20000000000000001
40
0.40000000000000002
40
0.60000000000000009
40
0.80000000000000004
40
1
40
1
40
1
40
1
40
1
40
1
41
1
41
1
41
1
41
1
41
1
41
1
41
1
41
1
41
1
41
1
10
46.145585756563761
20
-28.052594283391201
30
0
10
46.307309231464274
20
-27.415299045521255
30
0
10
46.626316409261442
20
-26.137643948870647
30
0
10
47.091513459871557
20
-24.211971306597547
30
0
10
47.683298369648057
20
-21.624750527297493
30
0
10
48.352346387721823
20
-18.341934443053635
30
0
10
48.795407523662959
20
-15.652054791447679
30
0
10
49.049809860530836
20
-13.580877855928479
30
0
10
49.179252179150758
20
-12.172372699666809
30
0
10
49.233924488821643
20
-11.461183748518344
30
0
0
SPLINE
5
123
100
AcDbEntity
8
0
100
AcDbSpline
70
4
71
5
72
16
73
10
74
0
42
0.000000001
43
0.0000000001
44
0.0000000001
40
0.58914922020160232
40
0.58914922020160232
40
0.58914922020160232
40
0.58914922020160232
40
0.58914922020160232
40
0.58914922020160232
40
0.59999999999999998
40
0.69999999999999996
40
0.79999999999999993
40
0.89999999999999991
40
1
40
1
40
1
40
1
40
1
40
1
41
1
41
1
41
1
41
1
41
1
41
1
41
1
41
1
41
1
41
1
10
49.269130719306766
20
-10.932839276138646
30
0
10
49.274246885311527
20
-10.842387568358738
30
0
10
49.322735939719394
20
-9.9158393729149203
30
0
10
49.341794276942743
20
-8.1050080351875415
30
0
10
49.171280417433735
20
-5.3039004233402256
30
0
10
48.585323043218281
20
-1.3630186780334361
30
0
10
47.605366211217479
20
2.7448022499148426
30
0
10
46.655607273810269
20
5.9678322624741442
30
0
10
45.928542737129121
20
8.1786633476173147
30
0
10
45.541535973077615
20
9.2996159972874182
30
0
0
SPLINE
5
124
100
AcDbEntity
8
0
100
AcDbSpline
70
4
71
5
72
16
73
10
74
0
42
0.000000001
43
0.0000000001
44
0.0000000001
40
0
40
0
40
0
40
0
40
0
40
0
40
0.20000000000000001
40
0.40000000000000002
40
0.60000000000000009
40
0.80000000000000004
40
1
40
1
40
1
40
1
40
1
40
1
41
1
41
1
41
1
41
1
41
1
41
1
41
1
41
1
41
1
41
1
10
67.145585756563804
20
-28.052594283391201
30
0
10
66.983862281656613
20
-27.415299045521316
30
0
10
66.664855103848438
20
-26.137643948870807
30
0
10
66.199658053229015
20
-24.211971306597825
30
0
10
65.607873143452395
20
-21.624750527297856
30
0
10
64.938825125390423
20
-18.341934443054008
30
0
10
64.495763989459988
20
-15.652054791447959
30
0
10
64.241361652597291
20
-13.580877855928632
30
0
10
64.111919333978747
20
-12.172372699666861
30
0
10
64.057247024308012
20
-11.461183748518344
30
0
0
SPLINE
5
125
100
AcDbEntity
8
0
100
AcDbSpline
70
4
71
5
72
16
73
10
74
0
42
0.000000001
43
0.0000000001
44
0.0000000001
40
0.58914922020160232
40
0.58914922020160232
40
0.58914922020160232
40
0.58914922020160232
40
0.58914922020160232
40
0.58914922020160232
40
0.59999999999999998
40
0.69999999999999996
40
0.79999999999999993
40
0.89999999999999991
40
1
40
1
40
1
40
1
40
1
40
1
41
1
41
1
41
1
41
1
41
1
41
1
41
1
41
1
41
1
41
1
10
64.022040793823024
20
-10.932839276138646
30
0
10
64.01692462781827
20
-10.842387568358738
30
0
10
63.968435573410581
20
-9.9158393729149203
30
0
10
63.949377236187424
20
-8.1050080351875415
30
0
10
64.119891095696332
20
-5.3039004233402256
30
0
10
64.705848469910975
20
-1.3630186780334361
30
0
10
65.685805301910762
20
2.7448022499148426
30
0
10
66.635564239317404
20
5.9678322624741442
30
0
10
67.362628775998431
20
8.1786633476173147
30
0
10
67.749635540049923
20
9.2996159972874182
30
0
0
LINE
5
126
100
AcDbEntity
8
0
100
AcDbLine
10
124.24963554004992
20
9.2996159972874182
30
0
11
124.24963554004992
21
26.447978280131963
31
0
0
SPLINE
5
127
100
AcDbEntity
8
0
100
AcDbSpline
70
4
71
5
72
51
73
45
74
0
42
0.000000001
43
0.0000000001
44
0.0000000001
40
0
40
0
40
0
40
0
40
0
40
0
40
0.025000000000000001
40
0.050000000000000003
40
0.075000000000000011
40
0.10000000000000001
40
0.125
40
0.14999999999999999
40
0.17499999999999999
40
0.19999999999999998
40
0.22499999999999998
40
0.24999999999999997
40
0.27499999999999997
40
0.29999999999999999
40
0.32500000000000001
40
0.35000000000000003
40
0.37500000000000006
40
0.40000000000000008
40
0.4250000000000001
40
0.45000000000000012
40
0.47500000000000014
40
0.50000000000000011
40
0.52500000000000013
40
0.55000000000000016
40
0.57500000000000018
40
0.6000000000000002
40
0.62500000000000022
40
0.65000000000000024
40
0.67500000000000027
40
0.70000000000000029
40
0.72500000000000031
40
0.75000000000000033
40
0.77500000000000036
40
0.80000000000000038
40
0.8250000000000004
40
0.85000000000000042
40
0.87500000000000044
40
0.90000000000000047
40
0.92500000000000049
40
0.95000000000000051
40
0.97500000000000053
40
1
40
1
40
1
40
1
40
1
40
1
41
1
41
1
41
1
41
1
41
1
41
1
41
1
41
1
41
1
41
1
41
1
41
1
41
1
41
1
41
1
41
1
41
1
41
1
41
1
41
1
41
1
41
1
41
1
41
1
41
1
41
1
41
1
41
1
41
1
41
1
41
1
41
1
41
1
41
1
41
1
41
1
41
1
41
1
41
1
41
1
41
1
41
1
41
1
41
1
41
1
10
102.04153597307763
20
26.447978280131963
30
0
10
101.8234852549939
20
27.114012268977699
30
0
10
101.41263115133097
20
28.41489667682691
30
0
10
100.87209056408147
20
30.272667384883999
30
0
10
100.30301753397967
20
32.562437691249883
30
0
10
99.843124181740123
20
35.118370044614714
30
0
10
99.629453292944305
20
37.388248042528787
30
0
10
99.649949704297072
20
39.412556549001849
30
0
10
99.884329747848909
20
41.263687181668757
30
0
10
100.29720702252796
20
43.035014124582354
30
0
10
100.83088882191237
20
44.818208731369708
30
0
10
101.39252228934043
20
46.678175648982872
30
0
10
101.86342862145339
20
48.649782661808281
30
0
10
102.13290171174037
20
50.761156483005827
30
0
10
102.12799886922886
20
53.051765509168199
30
0
10
101.83855858639303
20
55.587492414509789
30
0
10
101.2976213967664
20
58.440915945957371
30
0
10
100.5672199522671
20
61.675253646229564
30
0
10
99.723070252842675
20
65.328562302045455
30
0
10
98.837764461072325
20
69.393460384983442
30
0
10
97.973706082689802
20
73.817311741317596
30
0
10
97.183543376222957
20
78.517508074725782
30
0
10
96.508321055961829
20
83.392196548056759
30
0
10
95.97656703217811
20
88.3326694195339
30
0
10
95.602814109603699
20
93.235208965594353
30
0
10
95.386537902381633
20
98.012635349243808
30
0
10
95.310262921116561
20
102.60731020562076
30
0
10
95.33968366854981
20
106.99979945946836
30
0
10
95.433064135985575
20
111.19681766183373
30
0
10
95.549460377199324
20
115.2220069943584
30
0
10
95.657150805682164
20
119.10590680660987
30
0
10
95.742547798981249
20
122.87587283983102
30
0
10
95.817701582467663
20
126.54707979542785
30
0
10
95.931674239495734
20
130.11040207497305
30
0
10
96.166794780334016
20
133.53285016477994
30
0
10
96.623483211236575
20
136.76756983449383
30
0
10
97.408163122470327
20
139.76119533748414
30
0
10
98.620581609713028
20
142.46187797258233
30
0
10
100.33979741414619
20
144.82796382150158
30
0
10
102.61555527941553
20
146.83351206676258
30
0
10
105.47654274211462
20
148.46370583257053
30
0
10
108.2437183817258
20
149.46245507481038
30
0
10
110.58957663358683
20
150.03910337141227
30
0
10
112.27356823389539
20
150.34698728187482
30
0
10
113.14558575656378
20
150.48179204630574
30
0
0
SPLINE
5
128
100
AcDbEntity
8
0
100
AcDbSpline
70
4
71
5
72
51
73
45
74
0
42
0.000000001
43
0.0000000001
44
0.0000000001
40
0
40
0
40
0
40
0
40
0
40
0
40
0.025000000000000001
40
0.050000000000000003
40
0.075000000000000011
40
0.10000000000000001
40
0.125
40
0.14999999999999999
40
0.17499999999999999
40
0.19999999999999998
40
0.22499999999999998
40
0.24999999999999997
40
0.27499999999999997
40
0.29999999999999999
40
0.32500000000000001
40
0.35000000000000003
40
0.37500000000000006
40
0.40000000000000008
40
0.4250000000000001
40
0.45000000000000012
40
0.47500000000000014
40
0.50000000000000011
40
0.52500000000000013
40
0.55000000000000016
40
0.57500000000000018
40
0.6000000000000002
40
0.62500000000000022
40
0.65000000000000024
40
0.67500000000000027
40
0.70000000000000029
40
0.72500000000000031
40
0.75000000000000033
40
0.77500000000000036
40
0.80000000000000038
40
0.8250000000000004
40
0.85000000000000042
40
0.87500000000000044
40
0.90000000000000047
40
0.92500000000000049
40
0.95000000000000051
40
0.97500000000000053
40
1
40
1
40
1
40
1
40
1
40
1
41
1
41
1
41
1
41
1
41
1
41
1
41
1
41
1
41
1
41
1
41
1
41
1
41
1
41
1
41
1
41
1
41
1
41
1
41
1
41
1
41
1
41
1
41
1
41
1
41
1
41
1
41
1
41
1
41
1
41
1
41
1
41
1
41
1
41
1
41
1
41
1
41
1
41
1
41
1
41
1
41
1
41
1
41
1
41
1
41
1
10
124.24963554004992
20
26.447978280131963
30
0
10
124.46768625813365
20
27.114012268977699
30
0
10
124.87854036179741
20
28.41489667682691
30
0
10
125.41908094905131
20
30.272667384883999
30
0
10
125.98815397915746
20
32.562437691249883
30
0
10
126.44804733139539
20
35.118370044614714
30
0
10
126.66171822018552
20
37.388248042528787
30
0
10
126.6412218088268
20
39.412556549001849
30
0
10
126.40684176527336
20
41.263687181668757
30
0
10
125.99396449059751
20
43.035014124582354
30
0
10
125.46028269121727
20
44.818208731369708
30
0
10
124.89864922379118
20
46.678175648982872
30
0
10
124.42774289167735
20
48.649782661808281
30
0
10
124.15826980138645
20
50.761156483005827
30
0
10
124.16317264389492
20
53.051765509168199
30
0
10
124.45261292672967
20
55.587492414509789
30
0
10
124.99355011635744
20
58.440915945957371
30
0
10
125.72395156085925
20
61.675253646229564
30
0
10
126.5681012602866
20
65.328562302045455
30
0
10
127.45340705205865
20
69.393460384983442
30
0
10
128.31746543044218
20
73.817311741317596
30
0
10
129.10762813690917
20
78.517508074725782
30
0
10
129.78285045716908
20
83.392196548056759
30
0
10
130.31460448095129
20
88.3326694195339
30
0
10
130.68835740352449
20
93.235208965594353
30
0
10
130.90463361074555
20
98.012635349243808
30
0
10
130.98090859201096
20
102.60731020562076
30
0
10
130.95148784457902
20
106.99979945946836
30
0
10
130.85810737714448
20
111.19681766183373
30
0
10
130.74171113593127
20
115.2220069943584
30
0
10
130.63402070744829
20
119.10590680660987
30
0
10
130.5486237141476
20
122.87587283983102
30
0
10
130.4734699306585
20
126.54707979542785
30
0
10
130.3594972736268
20
130.11040207497305
30
0
10
130.12437673278586
20
133.53285016477994
30
0
10
129.66768830188329
20
136.76756983449383
30
0
10
128.88300839065269
20
139.76119533748414
30
0
10
127.67058990341609
20
142.46187797258233
30
0
10
125.95137409898918
20
144.82796382150158
30
0
10
123.67561623372346
20
146.83351206676258
30
0
10
120.81462877102277
20
148.46370583257053
30
0
10
118.0474531314064
20
149.46245507481038
30
0
10
115.70159487954191
20
150.03910337141227
30
0
10
114.01760327923216
20
150.34698728187482
30
0
10
113.14558575656378
20
150.48179204630574
30
0
0
LINE
5
129
100
AcDbEntity
8
0
100
AcDbLine
10
123.64558575656376
20
-119.05466719392987
30
0
11
123.64558575656378
21
-28.052594283391201
31
0
0
SPLINE
5
130
100
AcDbEntity
8
0
100
AcDbSpline
70
4
71
5
72
16
73
10
74
0
42
0.000000001
43
0.0000000001
44
0.0000000001
40
0
40
0
40
0
40
0
40
0
40
0
40
0.20000000000000001
40
0.40000000000000002
40
0.60000000000000009
40
0.80000000000000004
40
1
40
1
40
1
40
1
40
1
40
1
41
1
41
1
41
1
41
1
41
1
41
1
41
1
41
1
41
1
41
1
10
123.64558575656378
20
-28.052594283391201
30
0
10
123.48386228165025
20
-27.415299045521316
30
0
10
123.16485510383157
20
-26.137643948870807
30
0
10
122.69965805320325
20
-24.211971306597825
30
0
10
122.10787314342673
20
-21.624750527297856
30
0
10
121.43882512537562
20
-18.341934443054008
30
0
10
120.99576398945479
20
-15.652054791447959
30
0
10
120.74136165259634
20
-13.580877855928632
30
0
10
120.61191933397873
20
-12.172372699666861
30
0
10
120.55724702430801
20
-11.461183748518344
30
0
0
LINE
5
131
100
AcDbEntity
8
0
100
AcDbLine
10
113.14558575656378
20
-119.05466719392987
30
0
11
102.64558575656379
21
-119.05466719392987
31
0
0
LINE
5
132
100
AcDbEntity
8
0
100
AcDbLine
10
105.73392448882163
20
-11.461183748518344
30
0
11
120.55724702430801
21
-11.461183748518344
31
0
0
LINE
5
133
100
AcDbEntity
8
0
100
AcDbLine
10
105.76913071930676
20
-10.932839276138646
30
0
11
120.52204079382304
21
-10.932839276138646
31
0
0
SPLINE
5
134
100
AcDbEntity
8
0
100
AcDbSpline
70
4
71
5
72
16
73
10
74
0
42
0.000000001
43
0.0000000001
44
0.0000000001
40
0
40
0
40
0
40
0
40
0
40
0
40
0.20000000000000001
40
0.40000000000000002
40
0.60000000000000009
40
0.80000000000000004
40
1
40
1
40
1
40
1
40
1
40
1
41
1
41
1
41
1
41
1
41
1
41
1
41
1
41
1
41
1
41
1
10
120.52204079382304
20
-10.932839276138646
30
0
10
120.48329738861752
20
-10.247871829265199
30
0
10
120.45153234827129
20
-8.8476749845487763
30
0
10
120.54093536852167
20
-6.6566698007388361
30
0
10
120.90392637456105
20
-3.5739738251986979
30
0
10
121.68118501600433
20
0.49352483719279638
30
0
10
122.53979724629771
20
3.9042585323258088
30
0
10
123.33167258416643
20
6.5602103444713746
30
0
10
123.93163147845429
20
8.3785274568193344
30
0
10
124.24963554004992
20
9.2996159972874182
30
0
0
SPLINE
5
135
100
AcDbEntity
8
0
100
AcDbSpline
70
4
71
5
72
16
73
10
74
0
42
0.000000001
43
0.0000000001
44
0.0000000001
40
0
40
0
40
0
40
0
40
0
40
0
40
0.20000000000000001
40
0.40000000000000002
40
0.60000000000000009
40
0.80000000000000004
40
1
40
1
40
1
40
1
40
1
40
1
41
1
41
1
41
1
41
1
41
1
41
1
41
1
41
1
41
1
41
1
10
102.64558575656378
20
-28.052594283391201
30
0
10
102.80730923145967
20
-27.415299045521255
30
0
10
103.12631640924918
20
-26.137643948870647
30
0
10
103.59151345985275
20
-24.211971306597547
30
0
10
104.18329836962899
20
-21.624750527297493
30
0
10
104.85234638771053
20
-18.341934443053635
30
0
10
105.29540752365881
20
-15.652054791447679
30
0
10
105.54980986053005
20
-13.580877855928479
30
0
10
105.67925217915075
20
-12.172372699666809
30
0
10
105.73392448882163
20
-11.461183748518344
30
0
0
LINE
5
136
100
AcDbEntity
8
0
100
AcDbLine
10
113.14558575656378
20
161.41745813715531
30
0
11
113.14558575656378
21
-160.16606620928243
31
0
0
LINE
5
137
100
AcDbEntity
8
0
100
AcDbLine
10
102.64558575656379
20
-119.05466719392987
30
0
11
102.64558575656378
21
-28.052594283391201
31
0
0
SPLINE
5
138
100
AcDbEntity
8
0
100
AcDbSpline
70
4
71
5
72
16
73
10
74
0
42
0.000000001
43
0.0000000001
44
0.0000000001
40
0
40
0
40
0
40
0
40
0
40
0
40
0.20000000000000001
40
0.40000000000000002
40
0.60000000000000009
40
0.80000000000000004
40
1
40
1
40
1
40
1
40
1
40
1
41
1
41
1
41
1
41
1
41
1
41
1
41
1
41
1
41
1
41
1
10
105.76913071930676
20
-10.932839276138646
30
0
10
105.80787412451242
20
-10.247871829265199
30
0
10
105.83963916485908
20
-8.8476749845487763
30
0
10
105.75023614461129
20
-6.6566698007388361
30
0
10
105.3872451385723
20
-3.5739738251986979
30
0
10
104.6099864971272
20
0.49352483719279638
30
0
10
103.75137426683109
20
3.9042585323258088
30
0
10
102.95949892896138
20
6.5602103444713746
30
0
10
102.35954003467326
20
8.3785274568193344
30
0
10
102.04153597307763
20
9.2996159972874182
30
0
0
LINE
5
139
100
AcDbEntity
8
0
100
AcDbLine
10
113.14558575656378
20
-119.05466719392987
30
0
11
123.64558575656376
21
-119.05466719392987
31
0
0
LINE
5
140
100
AcDbEntity
8
0
100
AcDbLine
10
102.04153597307763
20
9.2996159972874182
30
0
11
102.04153597307763
21
26.447978280131963
31
0
0
LINE
5
141
100
AcDbEntity
8
0
100
AcDbLine
10
162.26913071930676
20
-10.932839276138646
30
0
11
177.02204079382307
21
-10.932839276138646
31
0
0
LINE
5
142
100
AcDbEntity
8
0
100
AcDbLine
10
169.64558575656378
20
-119.05466719392984
30
0
11
163.89558575656378
21
-119.05466719392984
31
0
0
LINE
5
143
100
AcDbEntity
8
0
100
AcDbLine
10
175.39558575656375
20
-119.05466719392984
30
0
11
175.39558575656378
21
-28.052594283391201
31
0
0
LINE
5
144
100
AcDbEntity
8
0
100
AcDbLine
10
158.54153597307763
20
9.2996159972874182
30
0
11
158.54153597307763
21
26.447978280131963
31
0
0
LINE
5
145
100
AcDbEntity
8
0
100
AcDbLine
10
180.74963554004995
20
9.2996159972874182
30
0
11
180.74963554004995
21
26.447978280131963
31
0
0
LINE
5
146
100
AcDbEntity
8
0
100
AcDbLine
10
162.23392448882166
20
-11.461183748518344
30
0
11
177.057247024308
21
-11.461183748518344
31
0
0
LINE
5
147
100
AcDbEntity
8
0
100
AcDbLine
10
163.89558575656378
20
-119.05466719392984
30
0
11
163.8955857565638
21
-28.052594283391201
31
0
0
SPLINE
5
148
100
AcDbEntity
8
0
100
AcDbSpline
70
4
71
5
72
16
73
10
74
0
42
0.000000001
43
0.0000000001
44
0.0000000001
40
0
40
0
40
0
40
0
40
0
40
0
40
0.20000000000000001
40
0.40000000000000002
40
0.60000000000000009
40
0.80000000000000004
40
1
40
1
40
1
40
1
40
1
40
1
41
1
41
1
41
1
41
1
41
1
41
1
41
1
41
1
41
1
41
1
10
177.02204079382307
20
-10.932839276138646
30
0
10
176.98329738861753
20
-10.247871829265199
30
0
10
176.9515323482712
20
-8.8476749845487763
30
0
10
177.04093536852133
20
-6.6566698007388361
30
0
10
177.40392637456037
20
-3.5739738251986979
30
0
10
178.1811850160035
20
0.49352483719279638
30
0
10
179.03979724629727
20
3.9042585323258088
30
0
10
179.83167258416631
20
6.5602103444713746
30
0
10
180.43163147845434
20
8.3785274568193344
30
0
10
180.74963554004995
20
9.2996159972874182
30
0
0
SPLINE
5
149
100
AcDbEntity
8
0
100
AcDbSpline
70
4
71
5
72
16
73
10
74
0
42
0.000000001
43
0.0000000001
44
0.0000000001
40
0
40
0
40
0
40
0
40
0
40
0
40
0.20000000000000001
40
0.40000000000000002
40
0.60000000000000009
40
0.80000000000000004
40
1
40
1
40
1
40
1
40
1
40
1
41
1
41
1
41
1
41
1
41
1
41
1
41
1
41
1
41
1
41
1
10
175.39558575656378
20
-28.052594283391201
30
0
10
175.52901819755431
20
-27.41248074927206
30
0
10
175.78809794447585
20
-26.129516701316085
30
0
10
176.1533719791438
20
-24.196863142407203
30
0
10
176.59046819336069
20
-21.602436048021161
30
0
10
177.01289569365571
20
-18.315828261530271
30
0
10
177.18920494286016
20
-15.629717641012338
30
0
10
177.18485069134397
20
-13.567115774933459
30
0
10
177.11152867744968
20
-12.167290957028996
30
0
10
177.057247024308
20
-11.461183748518344
30
0
0
SPLINE
5
150
100
AcDbEntity
8
0
100
AcDbSpline
70
4
71
5
72
51
73
45
74
0
42
0.000000001
43
0.0000000001
44
0.0000000001
40
0
40
0
40
0
40
0
40
0
40
0
40
0.025000000000000001
40
0.050000000000000003
40
0.075000000000000011
40
0.10000000000000001
40
0.125
40
0.14999999999999999
40
0.17499999999999999
40
0.19999999999999998
40
0.22499999999999998
40
0.24999999999999997
40
0.27499999999999997
40
0.29999999999999999
40
0.32500000000000001
40
0.35000000000000003
40
0.37500000000000006
40
0.40000000000000008
40
0.4250000000000001
40
0.45000000000000012
40
0.47500000000000014
40
0.50000000000000011
40
0.52500000000000013
40
0.55000000000000016
40
0.57500000000000018
40
0.6000000000000002
40
0.62500000000000022
40
0.65000000000000024
40
0.67500000000000027
40
0.70000000000000029
40
0.72500000000000031
40
0.75000000000000033
40
0.77500000000000036
40
0.80000000000000038
40
0.8250000000000004
40
0.85000000000000042
40
0.87500000000000044
40
0.90000000000000047
40
0.92500000000000049
40
0.95000000000000051
40
0.97500000000000053
40
1
40
1
40
1
40
1
40
1
40
1
41
1
41
1
41
1
41
1
41
1
41
1
41
1
41
1
41
1
41
1
41
1
41
1
41
1
41
1
41
1
41
1
41
1
41
1
41
1
41
1
41
1
41
1
41
1
41
1
41
1
41
1
41
1
41
1
41
1
41
1
41
1
41
1
41
1
41
1
41
1
41
1
41
1
41
1
41
1
41
1
41
1
41
1
41
1
41
1
41
1
10
158.54153597307763
20
26.447978280131963
30
0
10
158.3234852549939
20
27.114012268977699
30
0
10
157.91263115133097
20
28.414896676826885
30
0
10
157.3720905640815
20
30.272667384883825
30
0
10
156.80301753397976
20
32.562437691249464
30
0
10
156.34312418174036
20
35.118370044614132
30
0
10
156.12945329294439
20
37.388248042528474
30
0
10
156.14994970429689
20
39.412556549002225
30
0
10
156.38432974784902
20
41.26368718166971
30
0
10
156.79720702252811
20
43.03501412458283
30
0
10
157.33088882191231
20
44.818208731369296
30
0
10
157.89252228934006
20
46.678175648981835
30
0
10
158.36342862145312
20
48.649782661807436
30
0
10
158.6329017117404
20
50.761156483005877
30
0
10
158.62799886922946
20
53.051765509169577
30
0
10
158.33855858639384
20
55.587492414512134
30
0
10
157.7976213967674
20
58.440915945959745
30
0
10
157.06721995226755
20
61.675253646230615
30
0
10
156.22307025284226
20
65.328562302044247
30
0
10
155.33776446107004
20
69.393460384979491
30
0
10
154.47370608268551
20
73.817311741311599
30
0
10
153.68354337621722
20
78.51750807471899
30
0
10
153.00832105595566
20
83.392196548050563
30
0
10
152.47656703217305
20
88.332669419529594
30
0
10
152.10281410960093
20
93.235208965592378
30
0
10
151.88653790238212
20
98.012635349244292
30
0
10
151.81026292112085
20
102.60731020562338
30
0
10
151.83968366855703
20
106.99979945947233
30
0
10
151.93306413599441
20
111.1968176618382
30
0
10
152.04946037720777
20
115.22200699436237
30
0
10
152.15715080568802
20
119.1059068066123
30
0
10
152.24254779898308
20
122.87587283983159
30
0
10
152.31770158246513
20
126.54707979542685
30
0
10
152.43167423949052
20
130.11040207497163
30
0
10
152.66679478032805
20
133.53285016477895
30
0
10
153.12348321123204
20
136.76756983449354
30
0
10
153.90816312246844
20
139.76119533748437
30
0
10
155.12058160971375
20
142.46187797258233
30
0
10
156.8397974141489
20
144.82796382150084
30
0
10
159.1155552794192
20
146.83351206676116
30
0
10
161.97654274211769
20
148.46370583256919
30
0
10
164.74371838172726
20
149.46245507480978
30
0
10
167.0895766335872
20
150.03910337141215
30
0
10
168.77356823389536
20
150.34698728187479
30
0
10
169.64558575656378
20
150.48179204630574
30
0
0
SPLINE
5
151
100
AcDbEntity
8
0
100
AcDbSpline
70
4
71
5
72
51
73
45
74
0
42
0.000000001
43
0.0000000001
44
0.0000000001
40
0
40
0
40
0
40
0
40
0
40
0
40
0.025000000000000001
40
0.050000000000000003
40
0.075000000000000011
40
0.10000000000000001
40
0.125
40
0.14999999999999999
40
0.17499999999999999
40
0.19999999999999998
40
0.22499999999999998
40
0.24999999999999997
40
0.27499999999999997
40
0.29999999999999999
40
0.32500000000000001
40
0.35000000000000003
40
0.37500000000000006
40
0.40000000000000008
40
0.4250000000000001
40
0.45000000000000012
40
0.47500000000000014
40
0.50000000000000011
40
0.52500000000000013
40
0.55000000000000016
40
0.57500000000000018
40
0.6000000000000002
40
0.62500000000000022
40
0.65000000000000024
40
0.67500000000000027
40
0.70000000000000029
40
0.72500000000000031
40
0.75000000000000033
40
0.77500000000000036
40
0.80000000000000038
40
0.8250000000000004
40
0.85000000000000042
40
0.87500000000000044
40
0.90000000000000047
40
0.92500000000000049
40
0.95000000000000051
40
0.97500000000000053
40
1
40
1
40
1
40
1
40
1
40
1
41
1
41
1
41
1
41
1
41
1
41
1
41
1
41
1
41
1
41
1
41
1
41
1
41
1
41
1
41
1
41
1
41
1
41
1
41
1
41
1
41
1
41
1
41
1
41
1
41
1
41
1
41
1
41
1
41
1
41
1
41
1
41
1
41
1
41
1
41
1
41
1
41
1
41
1
41
1
41
1
41
1
41
1
41
1
41
1
41
1
10
180.74963554004995
20
26.447978280131963
30
0
10
180.96768625813368
20
27.114012268977699
30
0
10
181.37854036179709
20
28.414896676826899
30
0
10
181.91908094905003
20
30.272667384883913
30
0
10
182.48815397915521
20
32.56243769124972
30
0
10
182.94804733139392
20
35.118370044614593
30
0
10
183.16171822018543
20
37.388248042528758
30
0
10
183.14122180882723
20
39.412556549001899
30
0
10
182.90684176527347
20
41.263687181668793
30
0
10
182.49396449059748
20
43.035014124582347
30
0
10
181.96028269121737
20
44.818208731369708
30
0
10
181.39864922379161
20
46.678175648982915
30
0
10
180.92774289167784
20
48.649782661808352
30
0
10
180.65826980138652
20
50.761156483005806
30
0
10
180.66317264389426
20
53.051765509168135
30
0
10
180.9526129267287
20
55.587492414509768
30
0
10
181.49355011635646
20
58.440915945957457
30
0
10
182.22395156085878
20
61.675253646229663
30
0
10
183.06810126028719
20
65.328562302045384
30
0
10
183.95340705206075
20
69.393460384982944
30
0
10
184.81746543044619
20
73.817311741316743
30
0
10
185.607628136915
20
78.517508074724759
30
0
10
186.28285045717573
20
83.392196548055807
30
0
10
186.8146044809572
20
88.332669419533175
30
0
10
187.18835740352785
20
93.235208965594026
30
0
10
187.40463361074478
20
98.012635349243908
30
0
10
187.48090859200607
20
102.60731020562116
30
0
10
187.4514878445712
20
106.999799459469
30
0
10
187.35810737713578
20
111.19681766183442
30
0
10
187.24171113592399
20
115.22200699435894
30
0
10
187.13402070744394
20
119.10590680661014
30
0
10
187.04862371414663
20
122.87587283983103
30
0
10
186.97346993066017
20
126.54707979542778
30
0
10
186.85949727362927
20
130.11040207497311
30
0
10
186.62437673278788
20
133.53285016478029
30
0
10
186.16768830188423
20
136.76756983449437
30
0
10
185.38300839065283
20
139.76119533748459
30
0
10
184.17058990341587
20
142.46187797258222
30
0
10
182.45137409898956
20
144.82796382150067
30
0
10
180.17561623372461
20
146.83351206676107
30
0
10
177.31462877102416
20
148.46370583256916
30
0
10
174.54745313140711
20
149.46245507480972
30
0
10
172.20159487954209
20
150.03910337141212
30
0
10
170.51760327923216
20
150.34698728187479
30
0
10
169.64558575656378
20
150.48179204630574
30
0
0
LINE
5
152
100
AcDbEntity
8
0
100
AcDbLine
10
169.64558575656378
20
-119.05466719392984
30
0
11
175.39558575656375
21
-119.05466719392984
31
0
0
SPLINE
5
153
100
AcDbEntity
8
0
100
AcDbSpline
70
4
71
5
72
16
73
10
74
0
42
0.000000001
43
0.0000000001
44
0.0000000001
40
0
40
0
40
0
40
0
40
0
40
0
40
0.20000000000000001
40
0.40000000000000002
40
0.60000000000000009
40
0.80000000000000004
40
1
40
1
40
1
40
1
40
1
40
1
41
1
41
1
41
1
41
1
41
1
41
1
41
1
41
1
41
1
41
1
10
162.26913071930676
20
-10.932839276138646
30
0
10
162.30787412451241
20
-10.247871829265199
30
0
10
162.33963916485908
20
-8.8476749845487763
30
0
10
162.25023614461173
20
-6.6566698007388361
30
0
10
161.88724513857244
20
-3.5739738251986979
30
0
10
161.10998649712707
20
0.49352483719279638
30
0
10
160.25137426683088
20
3.9042585323258088
30
0
10
159.45949892896127
20
6.5602103444713746
30
0
10
158.85954003467327
20
8.3785274568193344
30
0
10
158.54153597307763
20
9.2996159972874182
30
0
0
LINE
5
154
100
AcDbEntity
8
0
100
AcDbLine
10
169.64558575656378
20
161.41745813715531
30
0
11
169.64558575656378
21
-160.16606620928243
31
0
0
SPLINE
5
155
100
AcDbEntity
8
0
100
AcDbSpline
70
4
71
5
72
16
73
10
74
0
42
0.000000001
43
0.0000000001
44
0.0000000001
40
0
40
0
40
0
40
0
40
0
40
0
40
0.20000000000000001
40
0.40000000000000002
40
0.60000000000000009
40
0.80000000000000004
40
1
40
1
40
1
40
1
40
1
40
1
41
1
41
1
41
1
41
1
41
1
41
1
41
1
41
1
41
1
41
1
10
163.8955857565638
20
-28.052594283391201
30
0
10
163.76215331555386
20
-27.412480749271953
30
0
10
163.50307356860009
20
-26.129516701315801
30
0
10
163.1377995339044
20
-24.19686314240673
30
0
10
162.70070331968645
20
-21.6024360480206
30
0
10
162.27827581942529
20
-18.315828261529767
30
0
10
162.10196657025139
20
-15.629717641011982
30
0
10
162.10632082178208
20
-13.567115774933267
30
0
10
162.17964283567983
20
-12.167290957028928
30
0
10
162.23392448882166
20
-11.461183748518344
30
0
0
LINE
5
156
100
AcDbEntity
8
0
100
AcDbLine
10
218.73392448882169
20
-11.461183748518344
30
0
11
233.55724702430803
21
-11.461183748518344
31
0
0
SPLINE
5
157
100
AcDbEntity
8
0
100
AcDbSpline
70
4
71
5
72
16
73
10
74
0
42
0.000000001
43
0.0000000001
44
0.0000000001
40
0
40
0
40
0
40
0
40
0
40
0
40
0.20000000000000001
40
0.40000000000000002
40
0.60000000000000009
40
0.80000000000000004
40
1
40
1
40
1
40
1
40
1
40
1
41
1
41
1
41
1
41
1
41
1
41
1
41
1
41
1
41
1
41
1
10
230.34558575656382
20
-28.052594283391201
30
0
10
230.57611394149842
20
-27.421729720368472
30
0
10
231.02530511857066
20
-26.156188374937066
30
0
10
231.66351127146692
20
-24.24644450702008
30
0
10
232.43834645088094
20
-21.675666807180654
30
0
10
233.21799134757123
20
-18.401502476378457
30
0
10
233.59536552030175
20
-15.703022801470198
30
0
10
233.67022744808128
20
-13.612279617944615
30
0
10
233.61281071830939
20
-12.183968015302426
30
0
10
233.55724702430803
20
-11.461183748518344
30
0
0
LINE
5
158
100
AcDbEntity
8
0
100
AcDbLine
10
215.04153597307763
20
9.2996159972874182
30
0
11
215.04153597307763
21
26.447978280131963
31
0
0
LINE
5
159
100
AcDbEntity
8
0
100
AcDbLine
10
218.76913071930676
20
-10.932839276138646
30
0
11
233.52204079382307
21
-10.932839276138646
31
0
0
LINE
5
160
100
AcDbEntity
8
0
100
AcDbLine
10
230.34558575656379
20
-119.05466719392987
30
0
11
230.34558575656382
21
-28.052594283391201
31
0
0
SPLINE
5
161
100
AcDbEntity
8
0
100
AcDbSpline
70
4
71
5
72
16
73
10
74
0
42
0.000000001
43
0.0000000001
44
0.0000000001
40
0
40
0
40
0
40
0
40
0
40
0
40
0.20000000000000001
40
0.40000000000000002
40
0.60000000000000009
40
0.80000000000000004
40
1
40
1
40
1
40
1
40
1
40
1
41
1
41
1
41
1
41
1
41
1
41
1
41
1
41
1
41
1
41
1
10
218.76913071930676
20
-10.932839276138646
30
0
10
218.80787412451244
20
-10.247871829265199
30
0
10
218.83963916485897
20
-8.8476749845487763
30
0
10
218.75023614461102
20
-6.6566698007388361
30
0
10
218.38724513857181
20
-3.5739738251986979
30
0
10
217.60998649712673
20
0.49352483719279638
30
0
10
216.75137426683074
20
3.9042585323258088
30
0
10
215.95949892896127
20
6.5602103444713746
30
0
10
215.35954003467324
20
8.3785274568193344
30
0
10
215.04153597307763
20
9.2996159972874182
30
0
0
LINE
5
162
100
AcDbEntity
8
0
100
AcDbLine
10
226.14558575656378
20
-119.05466719392984
30
0
11
221.94558575656376
21
-119.05466719392987
31
0
0
LINE
5
163
100
AcDbEntity
8
0
100
AcDbLine
10
226.14558575656378
20
161.41745813715531
30
0
11
226.14558575656378
21
-160.16606620928243
31
0
0
SPLINE
5
164
100
AcDbEntity
8
0
100
AcDbSpline
70
4
71
5
72
16
73
10
74
0
42
0.000000001
43
0.0000000001
44
0.0000000001
40
0
40
0
40
0
40
0
40
0
40
0
40
0.20000000000000001
40
0.40000000000000002
40
0.60000000000000009
40
0.80000000000000004
40
1
40
1
40
1
40
1
40
1
40
1
41
1
41
1
41
1
41
1
41
1
41
1
41
1
41
1
41
1
41
1
10
233.52204079382307
20
-10.932839276138646
30
0
10
233.48329738861753
20
-10.2478718292652
30
0
10
233.45153234827094
20
-8.8476749845487994
30
0
10
233.54093536852037
20
-6.6566698007389462
30
0
10
233.90392637455858
20
-3.5739738251988742
30
0
10
234.68118501600208
20
0.49352483719264156
30
0
10
235.53979724629656
20
3.9042585323257399
30
0
10
236.33167258416623
20
6.5602103444713631
30
0
10
236.93163147845428
20
8.3785274568193362
30
0
10
237.24963554004989
20
9.2996159972874182
30
0
0
LINE
5
165
100
AcDbEntity
8
0
100
AcDbLine
10
226.14558575656378
20
-119.05466719392987
30
0
11
230.34558575656379
21
-119.05466719392987
31
0
0
LINE
5
166
100
AcDbEntity
8
0
100
AcDbLine
10
221.94558575656376
20
-119.05466719392987
30
0
11
221.94558575656373
21
-28.052594283391201
31
0
0
SPLINE
5
167
100
AcDbEntity
8
0
100
AcDbSpline
70
4
71
5
72
51
73
45
74
0
42
0.000000001
43
0.0000000001
44
0.0000000001
40
0
40
0
40
0
40
0
40
0
40
0
40
0.025000000000000001
40
0.050000000000000003
40
0.075000000000000011
40
0.10000000000000001
40
0.125
40
0.14999999999999999
40
0.17499999999999999
40
0.19999999999999998
40
0.22499999999999998
40
0.24999999999999997
40
0.27499999999999997
40
0.29999999999999999
40
0.32500000000000001
40
0.35000000000000003
40
0.37500000000000006
40
0.40000000000000008
40
0.4250000000000001
40
0.45000000000000012
40
0.47500000000000014
40
0.50000000000000011
40
0.52500000000000013
40
0.55000000000000016
40
0.57500000000000018
40
0.6000000000000002
40
0.62500000000000022
40
0.65000000000000024
40
0.67500000000000027
40
0.70000000000000029
40
0.72500000000000031
40
0.75000000000000033
40
0.77500000000000036
40
0.80000000000000038
40
0.8250000000000004
40
0.85000000000000042
40
0.87500000000000044
40
0.90000000000000047
40
0.92500000000000049
40
0.95000000000000051
40
0.97500000000000053
40
1
40
1
40
1
40
1
40
1
40
1
41
1
41
1
41
1
41
1
41
1
41
1
41
1
41
1
41
1
41
1
41
1
41
1
41
1
41
1
41
1
41
1
41
1
41
1
41
1
41
1
41
1
41
1
41
1
41
1
41
1
41
1
41
1
41
1
41
1
41
1
41
1
41
1
41
1
41
1
41
1
41
1
41
1
41
1
41
1
41
1
41
1
41
1
41
1
41
1
41
1
10
237.24963554004989
20
26.447978280131963
30
0
10
237.46768625813363
20
27.114012268977699
30
0
10
237.87854036179726
20
28.414896676826885
30
0
10
238.41908094905136
20
30.272667384883842
30
0
10
238.988153979158
20
32.562437691249514
30
0
10
239.44804733139591
20
35.118370044614217
30
0
10
239.66171822018563
20
37.38824804252851
30
0
10
239.64122180882646
20
39.412556549002183
30
0
10
239.40684176527361
20
41.263687181669646
30
0
10
238.99396449059819
20
43.035014124582815
30
0
10
238.46028269121689
20
44.818208731369332
30
0
10
237.89864922378973
20
46.678175648981892
30
0
10
237.42774289167625
20
48.649782661807521
30
0
10
237.15826980138658
20
50.761156483005898
30
0
10
237.16317264389673
20
53.051765509169414
30
0
10
237.45261292673257
20
55.587492414511885
30
0
10
237.99355011636007
20
58.440915945959482
30
0
10
238.72395156086012
20
61.675253646230502
30
0
10
239.56810126028554
20
65.328562302044389
30
0
10
240.45340705205513
20
69.393460384979988
30
0
10
241.31746543043715
20
73.817311741312324
30
0
10
242.10762813690377
20
78.517508074719771
30
0
10
242.78285045716439
20
83.392196548051203
30
0
10
243.31460448094833
20
88.332669419529964
30
0
10
243.6883574035233
20
93.235208965592506
30
0
10
243.90463361074583
20
98.012635349244249
30
0
10
243.98090859201292
20
102.60731020562326
30
0
10
243.95148784458289
20
106.99979945947231
30
0
10
243.85810737715036
20
111.19681766183822
30
0
10
243.74171113593803
20
115.22200699436242
30
0
10
243.63402070745371
20
119.10590680661237
30
0
10
243.54862371414953
20
122.87587283983164
30
0
10
243.47346993065605
20
126.5470797954268
30
0
10
243.35949727362072
20
130.11040207497166
30
0
10
243.12437673277825
20
133.53285016477906
30
0
10
242.66768830187689
20
136.76756983449368
30
0
10
241.88300839064965
20
139.76119533748448
30
0
10
240.67058990341724
20
142.46187797258236
30
0
10
238.9513740989938
20
144.82796382150059
30
0
10
236.67561623373001
20
146.83351206676073
30
0
10
233.81462877102837
20
148.46370583256879
30
0
10
231.04745313140899
20
149.46245507480961
30
0
10
228.70159487954254
20
150.03910337141212
30
0
10
227.01760327923216
20
150.34698728187482
30
0
10
226.14558575656378
20
150.48179204630577
30
0
0
LINE
5
168
100
AcDbEntity
8
0
100
AcDbLine
10
237.24963554004989
20
9.2996159972874182
30
0
11
237.24963554004989
21
26.447978280131963
31
0
0
SPLINE
5
169
100
AcDbEntity
8
0
100
AcDbSpline
70
4
71
5
72
51
73
45
74
0
42
0.000000001
43
0.0000000001
44
0.0000000001
40
0
40
0
40
0
40
0
40
0
40
0
40
0.025000000000000001
40
0.050000000000000003
40
0.075000000000000011
40
0.10000000000000001
40
0.125
40
0.14999999999999999
40
0.17499999999999999
40
0.19999999999999998
40
0.22499999999999998
40
0.24999999999999997
40
0.27499999999999997
40
0.29999999999999999
40
0.32500000000000001
40
0.35000000000000003
40
0.37500000000000006
40
0.40000000000000008
40
0.4250000000000001
40
0.45000000000000012
40
0.47500000000000014
40
0.50000000000000011
40
0.52500000000000013
40
0.55000000000000016
40
0.57500000000000018
40
0.6000000000000002
40
0.62500000000000022
40
0.65000000000000024
40
0.67500000000000027
40
0.70000000000000029
40
0.72500000000000031
40
0.75000000000000033
40
0.77500000000000036
40
0.80000000000000038
40
0.8250000000000004
40
0.85000000000000042
40
0.87500000000000044
40
0.90000000000000047
40
0.92500000000000049
40
0.95000000000000051
40
0.97500000000000053
40
1
40
1
40
1
40
1
40
1
40
1
41
1
41
1
41
1
41
1
41
1
41
1
41
1
41
1
41
1
41
1
41
1
41
1
41
1
41
1
41
1
41
1
41
1
41
1
41
1
41
1
41
1
41
1
41
1
41
1
41
1
41
1
41
1
41
1
41
1
41
1
41
1
41
1
41
1
41
1
41
1
41
1
41
1
41
1
41
1
41
1
41
1
41
1
41
1
41
1
41
1
10
215.04153597307763
20
26.447978280131963
30
0
10
214.8234852549939
20
27.114012268977699
30
0
10
214.41263115133108
20
28.414896676826892
30
0
10
213.87209056408236
20
30.272667384883903
30
0
10
213.30301753398132
20
32.562437691249691
30
0
10
212.84312418174187
20
35.118370044614544
30
0
10
212.62945329294502
20
37.388248042528744
30
0
10
212.64994970429601
20
39.412556549001913
30
0
10
212.88432974784709
20
41.263687181668836
30
0
10
213.297207022527
20
43.035014124582396
30
0
10
213.83088882191319
20
44.81820873136968
30
0
10
214.39252228934265
20
46.678175648982801
30
0
10
214.86342862145551
20
48.649782661808239
30
0
10
215.13290171174009
20
50.761156483005799
30
0
10
215.12799886922602
20
53.051765509168334
30
0
10
214.83855858638847
20
55.587492414510081
30
0
10
214.29762139676234
20
58.440915945957748
30
0
10
213.56721995226539
20
61.675253646229777
30
0
10
212.72307025284474
20
65.328562302045242
30
0
10
211.8377644610776
20
69.393460384982532
30
0
10
210.97370608269767
20
73.817311741316146
30
0
10
210.18354337623202
20
78.517508074724105
30
0
10
209.5083210559703
20
83.392196548055267
30
0
10
208.97656703218445
20
88.332669419532948
30
0
10
208.60281410960658
20
93.23520896559404
30
0
10
208.38653790238084
20
98.012635349243951
30
0
10
208.31026292111306
20
102.60731020562102
30
0
10
208.33968366854475
20
106.99979945946856
30
0
10
208.43306413598071
20
111.19681766183365
30
0
10
208.549460377196
20
115.22200699435814
30
0
10
208.65715080568091
20
119.10590680660954
30
0
10
208.74254779898143
20
122.87587283983081
30
0
10
208.81770158246781
20
126.54707979542805
30
0
10
208.93167423949455
20
130.11040207497371
30
0
10
209.1667947803312
20
133.532850164781
30
0
10
209.62348321123335
20
136.76756983449496
30
0
10
210.40816312246824
20
139.76119533748482
30
0
10
211.62058160971378
20
142.46187797258219
30
0
10
213.3397974141497
20
144.82796382150025
30
0
10
215.61555527942065
20
146.83351206676056
30
0
10
218.47654274211905
20
148.46370583256873
30
0
10
221.24371838172789
20
149.46245507480955
30
0
10
223.58957663358746
20
150.0391033714121
30
0
10
225.27356823389539
20
150.34698728187482
30
0
10
226.14558575656378
20
150.48179204630577
30
0
0
SPLINE
5
170
100
AcDbEntity
8
0
100
AcDbSpline
70
4
71
5
72
16
73
10
74
0
42
0.000000001
43
0.0000000001
44
0.0000000001
40
0
40
0
40
0
40
0
40
0
40
0
40
0.20000000000000001
40
0.40000000000000002
40
0.60000000000000009
40
0.80000000000000004
40
1
40
1
40
1
40
1
40
1
40
1
41
1
41
1
41
1
41
1
41
1
41
1
41
1
41
1
41
1
41
1
10
221.94558575656373
20
-28.052594283391201
30
0
10
221.71505757160452
20
-27.421729720368475
30
0
10
221.26586639449124
20
-26.156188374937063
30
0
10
220.62766024155911
20
-24.246444507020023
30
0
10
219.85282506214273
20
-21.675666807180477
30
0
10
219.07318016549516
20
-18.401502476378145
30
0
10
218.69580599280425
20
-15.70302280146989
30
0
10
218.6209440650438
20
-13.612279617944418
30
0
10
218.67836079482018
20
-12.183968015302353
30
0
10
218.73392448882169
20
-11.461183748518344
30
0
0
LINE
5
171
100
AcDbEntity
8
0
100
AcDbLine
10
56.645585756563776
20
-10.932839276374864
30
0
11
64.022040793823024
21
-10.932839276138646
31
0
0
LINE
5
172
100
AcDbEntity
8
0
100
AcDbLine
10
56.645585756563776
20
-11.461183748601869
30
0
11
64.057247024308012
21
-11.461183748518344
31
0
0
ENDSEC
0
SECTION
2
OBJECTS
0
DICTIONARY
5
C
100
AcDbDictionary
3
ACAD_GROUP
350
D
3
ACAD_MLINESTYLE
350
17
0
DICTIONARY
5
D
100
AcDbDictionary
0
DICTIONARY
5
1A
330
C
100
AcDbDictionary
0
DICTIONARY
5
17
100
AcDbDictionary
0
ENDSEC
0
EOF
